<svg xmlns="http://www.w3.org/2000/svg" viewBox="0 0 30.09 24.45" width="31" height="25"><title>Twitter</title><style>#twitter_layer_1{fill: #fff;}</style><g id="twitter_layer_1"><g id="twitter_layer_1"><path d="M30.09,2.89a12.34,12.34,0,0,1-3.55,1A6.19,6.19,0,0,0,29.26.45a12.36,12.36,0,0,1-3.92,1.5A6.18,6.18,0,0,0,14.82,7.58,17.53,17.53,0,0,1,2.09,1.13,6.18,6.18,0,0,0,4,9.37a6.15,6.15,0,0,1-2.8-.77v.08a6.18,6.18,0,0,0,5,6.05,6.19,6.19,0,0,1-2.79.11,6.18,6.18,0,0,0,5.77,4.29,12.39,12.39,0,0,1-7.67,2.64A12.57,12.57,0,0,1,0,21.68a17.47,17.47,0,0,0,9.46,2.77C20.82,24.45,27,15,27,6.89q0-.4,0-.8A12.55,12.55,0,0,0,30.09,2.89Z"/></g></g></svg>
